<svg id="Layer_1" enable-background="new 0 0 480.121 480.121" height="512" viewBox="0 0 480.121 480.121" width="512" xmlns="http://www.w3.org/2000/svg"><path d="m319.559 342.242c-11.782-.008-22.467-6.016-28.583-16.071-2.295-3.774-7.215-4.974-10.992-2.678-3.774 2.296-4.974 7.217-2.678 10.992 4.253 6.993 10.014 12.641 16.721 16.685l-8.316 37.621-19.973-23.031c3.713-4.264 2.666-9.126-.364-11.764-3.332-2.901-8.385-2.554-11.287.78l-14.077 16.166-35.405-39.394c3.014-5.777 4.844-12.117 5.376-18.727 68.509 20.074 137.064-31.12 137.243-102.381 0-2.724.041-61.149.044-65.122.022-30.95-25.007-56.013-55.961-56.035l-102.001-.07c-31.105 0-56.017 25.134-56.038 55.962l-.036 51.878c-5.345-2.771-8.994-8.268-8.99-14.657l.066-97.46c.007-10.473 8.528-18.987 19-18.987 3.378 0 6.259-2.067 7.444-5.024 10.759-26.84 36.814-44.925 66.454-44.925l107.569.073-9.92 26.162c-1.652 4.361.764 9.215 5.247 10.519l13.861 4.029c13.248 3.851 23.289 15.988 23.344 30.852l-.065 94.92c-.003 4.418 3.576 8.002 7.994 8.006 4.436 0 8.003-3.591 8.006-7.994 0-.591.066-94.705.064-95.296-.074-21.049-14.416-39.904-34.876-45.852l-5.543-1.611 10.954-28.89c1.981-5.227-1.884-10.832-7.475-10.836l-119.15-.082c-34.331-.01-65.062 19.924-79.315 50.366-16.731 2.606-29.58 17.107-29.592 34.56l-.066 97.46c-.01 15.541 10.863 28.254 25.053 31.648 1.464 41.229 26.174 76.176 60.861 92.741l-.001 2.039c-.012 18.439-14.96 33.319-33.425 33.319-43.195-.771-82.622 35.205-82.654 82.515l-.033 47.257c-.003 4.418 3.576 8.002 7.995 8.005 4.436 0 8.002-3.591 8.005-7.995l.033-47.257c.025-36.757 29.772-66.525 66.57-66.525 2.777.049 6.744-.303 10.501-1.103l11.128 50.668c1.412 6.425 9.555 8.473 13.851 3.533l28.808-33.127 7.169 7.977-.033 47.93c-.003 4.418 3.576 8.002 7.995 8.005 4.436 0 8.002-3.591 8.005-7.995l.033-48.008 7.024-8.067 28.918 33.345c4.305 4.965 12.441 2.888 13.855-3.515l11.197-50.654c3.388.723 6.883 1.117 10.451 1.119 36.792.024 66.554 29.819 66.527 66.617l-.032 47.257c-.003 4.418 3.576 8.002 7.994 8.005 4.437 0 8.003-3.591 8.006-7.995l.032-47.257c.033-45.634-36.874-82.597-82.517-82.626zm-170.336-132.214.044-64.841c.015-22.048 17.955-39.973 40-39.973.048 0 101.979.07 102.027.07 22.106.015 39.989 17.912 39.973 40.024l-.045 65.226c-.21 50.075-40.766 90.607-91.062 90.607-50.142-.035-90.937-40.545-90.937-91.113zm45.268 178.701-8.267-37.643c3.051-1.839 5.913-4.031 8.552-6.537l19.382 21.565z"/></svg>