<svg id="Capa_1" data-name="Capa 1" xmlns="http://www.w3.org/2000/svg" viewBox="0 0 370.51 526"><defs><style>.cls-1{stroke:#000;stroke-miterlimit:10;stroke-width:14px;}</style></defs><title>peace</title><path class="cls-1" d="M391.59,170.67a42.71,42.71,0,0,0-42.67,42.67V288a42.64,42.64,0,0,0,64,36.93v40.85A125,125,0,0,1,288,490.67H240.87a119,119,0,0,1-117-97.71l-9-49.22a40.35,40.35,0,0,1-.6-6.8,37.53,37.53,0,0,1,29.06-36.69l134.23-31.57a45.1,45.1,0,0,1-28.91,50.26l-46,16.73a27.1,27.1,0,0,0-15,37.63l13.06,26.13a10.67,10.67,0,0,0,19.09-9.54l-13.06-26.15a5.8,5.8,0,0,1,3.2-8l46-16.73A66.31,66.31,0,0,0,294.82,252a10.7,10.7,0,0,0-12.33-6.42l-144,33.9A58.76,58.76,0,0,0,92.92,337a63.45,63.45,0,0,0,.94,10.58l9,49.28A140.24,140.24,0,0,0,240.85,512H288c80.64,0,146.24-65.6,146.24-146.22V213.33A42.71,42.71,0,0,0,391.59,170.67ZM412.92,288a21.33,21.33,0,0,1-42.67,0V213.33a21.33,21.33,0,0,1,42.67,0V288Z" transform="translate(-70.74 7)"/><path class="cls-1" d="M370.26,213.33V170.67a42.67,42.67,0,1,0-85.33,0V277.33a42.67,42.67,0,1,0,85.33,0V234.67a10.67,10.67,0,1,0-21.33,0v42.67a21.33,21.33,0,0,1-42.67,0V170.67a21.33,21.33,0,0,1,42.67,0v42.67A10.67,10.67,0,1,0,370.26,213.33Z" transform="translate(-70.74 7)"/><path class="cls-1" d="M262,0c-22.85,0-41.77,17.13-44.1,40.51L212,199.06,160.06,82.69a43,43,0,0,0-80.3,30.17L136.08,291.2a10.67,10.67,0,0,0,10.18,7.47,10.52,10.52,0,0,0,3.22-.49,10.67,10.67,0,0,0,7-13.38L100.09,106.43a21.62,21.62,0,0,1,40.45-15.13L200.4,225.51a16.82,16.82,0,0,0,32.17-6.25L239.18,42a22.93,22.93,0,0,1,45.74,2.3v126.4a10.67,10.67,0,1,0,21.33,0V44.27A44.31,44.31,0,0,0,262,0Z" transform="translate(-70.74 7)"/></svg>