<svg id="Lager_1" data-name="Lager 1" xmlns="http://www.w3.org/2000/svg" viewBox="0 0 749.52 440.4"><defs><style>.cls-1{stroke:#000;stroke-miterlimit:10;stroke-width:3px;}</style></defs><title>work-image</title><g id="working-chair-desk-monitor-online"><path d="M780.54,458.11V435.7a5.6,5.6,0,0,0-5.6-5.6H702.1v-5.6a16.86,16.86,0,0,0-16.81-16.81h-5.6V396.48h28a16.86,16.86,0,0,0,16.81-16.81V278.82A16.86,16.86,0,0,0,707.7,262H517.22a16.86,16.86,0,0,0-16.81,16.81V379.67a16.86,16.86,0,0,0,16.81,16.81h28v11.21h-5.6a16.86,16.86,0,0,0-16.81,16.81v5.6H450a5.6,5.6,0,0,0-5.6,5.6v22.41a5.6,5.6,0,0,0,5.6,5.6h10.48l-16,128.19a5.42,5.42,0,0,0,1.34,4.37,5.5,5.5,0,0,0,4.2,1.9h11.21a5.6,5.6,0,0,0,5.38-4l38-130.43h18.21v16.81a5.6,5.6,0,0,0,5.6,5.6h16.81v11.21a5.6,5.6,0,0,0,5.6,5.6h44.82v33.62H556.43a5.6,5.6,0,0,0-5.6,5.6v23.42a16.81,16.81,0,1,0,11.21,0V547.75h44.82v17.82a16.81,16.81,0,1,0,11.21,0V547.75h44.82v17.82a16.81,16.81,0,1,0,11.21,0V542.14a5.6,5.6,0,0,0-5.6-5.6H629.27V502.93h44.82a5.6,5.6,0,0,0,5.6-5.6V486.12H696.5a5.6,5.6,0,0,0,5.6-5.6V463.71h18.21l38,130.43a5.6,5.6,0,0,0,5.38,4h11.21a5.5,5.5,0,0,0,4.2-1.9,5.42,5.42,0,0,0,1.34-4.37l-16-128.19h10.48A5.6,5.6,0,0,0,780.54,458.11ZM457,587h-0.67l15.41-123.26H493ZM522.82,452.5H455.59V441.3h67.23V452.5Zm22.41,22.41H534V424.49a5.6,5.6,0,0,1,5.6-5.6h5.6v56ZM556.43,587a5.6,5.6,0,1,1,5.6-5.6A5.6,5.6,0,0,1,556.43,587Zm112.05-11.21a5.6,5.6,0,1,1-5.6,5.6A5.6,5.6,0,0,1,668.48,575.76Zm-56,11.21a5.6,5.6,0,1,1,5.6-5.6A5.6,5.6,0,0,1,612.46,587Zm5.6-50.42H606.86V502.93h11.21v33.62Zm50.42-44.82H556.43V379.67a5.6,5.6,0,0,1,5.6-5.6H662.88a5.6,5.6,0,0,1,5.6,5.6V491.72ZM578.84,362.86V351.66a33.62,33.62,0,0,1,67.23,0v11.21H578.84Zm84,0h-5.6V351.66a44.82,44.82,0,0,0-89.64,0v11.21H562a16.86,16.86,0,0,0-16.81,16.81v5.6h-28a5.6,5.6,0,0,1-5.6-5.6V278.82a5.6,5.6,0,0,1,5.6-5.6H707.7a5.6,5.6,0,0,1,5.6,5.6V379.67a5.6,5.6,0,0,1-5.6,5.6h-28v-5.6A16.86,16.86,0,0,0,662.88,362.86Zm28,112.05H679.69v-56h5.6a5.6,5.6,0,0,1,5.6,5.6v50.42ZM768.6,587h-0.67L732,463.71h21.23Zm0.73-134.46H702.1V441.3h67.23V452.5Z" transform="translate(-226 -157.82)"/><path d="M690.89,312.44H702.1V290a5.6,5.6,0,0,0-5.6-5.6H674.09v11.21h16.81v16.81Z" transform="translate(-226 -157.82)"/><rect x="464.9" y="165.83" width="11.21" height="11.21"/></g><path class="cls-1" d="M426.32,159.32H230.87a3.37,3.37,0,0,0-3.37,3.37V284a3.37,3.37,0,0,0,3.37,3.37h30.33v33.7a3.37,3.37,0,0,0,3.37,3.37h20.22a3.37,3.37,0,0,0,3.37-3.37v-33.7H426.32a3.37,3.37,0,0,0,3.37-3.37V162.69A3.37,3.37,0,0,0,426.32,159.32ZM281.41,317.7H267.93V311h13.48v6.74Zm0-13.48H267.93v-67.4h13.48v67.4Zm-11.74-74.14,5-11.66,5,11.66h-10Zm153.27,50.55H288.15V233.45s0-.09,0-0.14a3.36,3.36,0,0,0-.23-1.13v-0.05l-10.11-23.59a3.37,3.37,0,0,0-6.19,0l-10.11,23.59v0.05a3.36,3.36,0,0,0-.23,1.13c0,0.05,0,.09,0,0.14v47.18h-27V166.06H422.95V280.63Z" transform="translate(-226 -157.82)"/><path class="cls-1" d="M375.56,193a23.59,23.59,0,0,0-46.7,0H305a3.37,3.37,0,0,0-3.37,3.37v47.18a3.37,3.37,0,0,0,3.37,3.37h47.18a3.37,3.37,0,0,0,3.37-3.37V219.7A23.59,23.59,0,0,0,375.56,193Zm-26.75,47.18H308.37V199.75h20.49a23.59,23.59,0,0,0,19.95,19.95v20.49Zm0-27.3a16.9,16.9,0,0,1-13.14-13.14h13.14V212.9Zm6.74,0V196.39a3.37,3.37,0,0,0-3.37-3.37H335.67A16.86,16.86,0,1,1,355.55,212.9Z" transform="translate(-226 -157.82)"/><path class="cls-1" d="M392,244.74a3.37,3.37,0,0,0-4.73-.58l-0.29.25h0l-25.36,22.19L340,257.31a3.37,3.37,0,0,0-2.51-.06l-27,10.11a3.37,3.37,0,0,0,1.18,6.53,3.47,3.47,0,0,0,1.18-.21L338.62,264,361,273.62a3.37,3.37,0,0,0,3.55-.56l27-23.59A3.37,3.37,0,0,0,392,244.74Z" transform="translate(-226 -157.82)"/><path class="cls-1" d="M291.52,189.65H244.35a3.37,3.37,0,1,0,0,6.74h47.18A3.37,3.37,0,0,0,291.52,189.65Z" transform="translate(-226 -157.82)"/><path class="cls-1" d="M412.39,225l-13.48-23.59a3.5,3.5,0,0,0-5.85,0L379.58,225a3.37,3.37,0,0,0,2.93,5.05h27A3.37,3.37,0,0,0,412.39,225Zm-24.08-1.68L396,209.92l7.67,13.43H388.31Z" transform="translate(-226 -157.82)"/><path class="cls-1" d="M912.17,318.81H894.5c-4.12,0-8.84-3.53-8.84-10.6V295.84c0-5.89-2.95-11.19-7.66-15.31a40.71,40.71,0,0,1-15.9-33,41.92,41.92,0,0,1,40.64-40.64,41.4,41.4,0,0,1,29.45,11.78,41.93,41.93,0,0,1,12.37,29.45,39.61,39.61,0,0,1-15.31,31.81A21.51,21.51,0,0,0,921,296.43V310a9.06,9.06,0,0,1-8.84,8.84h0Zm-8.84-106c-18.85,0-34.75,15.9-35.34,34.75,0,11.19,4.71,21.79,13.55,28.27,6.48,5.3,10,12.37,10,20v12.37c0,1.18,0,4.71,2.95,4.71h17.67a2.78,2.78,0,0,0,2.95-2.95V296.43c0-7.66,4.12-15.9,10.6-21.2a34.35,34.35,0,0,0,13-27.09,35.21,35.21,0,0,0-10.6-25.33,34.72,34.72,0,0,0-24.74-10h0Z" transform="translate(-226 -157.82)"/><path class="cls-1" d="M918.06,301.14H888.61a2.95,2.95,0,1,1,0-5.89h29.45A2.95,2.95,0,1,1,918.06,301.14Z" transform="translate(-226 -157.82)"/><path class="cls-1" d="M903.33,195.12a2.78,2.78,0,0,1-2.95-2.95V180.4a2.95,2.95,0,1,1,5.89,0v11.78A2.78,2.78,0,0,1,903.33,195.12Z" transform="translate(-226 -157.82)"/><path class="cls-1" d="M942.79,211.61a3.54,3.54,0,0,1-2.36-.59,2.85,2.85,0,0,1,0-4.12l8.25-8.25a2.92,2.92,0,0,1,4.12,4.12L944.56,211a5.93,5.93,0,0,1-1.77.59h0Z" transform="translate(-226 -157.82)"/><path class="cls-1" d="M971.07,251.08H959.29a2.95,2.95,0,0,1,0-5.89h11.78A2.95,2.95,0,0,1,971.07,251.08Z" transform="translate(-226 -157.82)"/><path class="cls-1" d="M951,298.79a3.54,3.54,0,0,1-2.36-.59L940.44,290a2.92,2.92,0,1,1,4.12-4.12l8.25,8.25a2.85,2.85,0,0,1,0,4.12c0,0.59-.59.59-1.77,0.59h0Z" transform="translate(-226 -157.82)"/><path class="cls-1" d="M855.62,298.79a3.54,3.54,0,0,1-2.36-.59,2.85,2.85,0,0,1,0-4.12l8.25-8.25a2.92,2.92,0,0,1,4.12,4.12l-8.25,8.25A2.16,2.16,0,0,1,855.62,298.79Z" transform="translate(-226 -157.82)"/><path class="cls-1" d="M847.38,251.08H835.6a2.95,2.95,0,0,1,0-5.89h11.78A2.95,2.95,0,1,1,847.38,251.08Z" transform="translate(-226 -157.82)"/><path class="cls-1" d="M863.87,211.61a3.54,3.54,0,0,1-2.36-.59l-8.25-8.84a2.92,2.92,0,1,1,4.12-4.12l8.25,8.25a2.85,2.85,0,0,1,0,4.12,3.12,3.12,0,0,1-1.77,1.18h0Z" transform="translate(-226 -157.82)"/><path class="cls-1" d="M926.89,251.08a2.78,2.78,0,0,1-2.95-2.95,20.87,20.87,0,0,0-20.62-20.62,2.95,2.95,0,0,1,0-5.89,26.39,26.39,0,0,1,26.51,26.51A2.78,2.78,0,0,1,926.89,251.08Z" transform="translate(-226 -157.82)"/></svg>